<svg width="360" height="50" viewBox="0 0 360 50" fill="none" xmlns="http://www.w3.org/2000/svg">
<path opacity="0.4" fill-rule="evenodd" clip-rule="evenodd" d="M2.92893 2.92893C0 5.85786 0 10.5719 0 20V30C0 39.4281 0 44.1421 2.92893 47.0711C5.85786 50 10.5719 50 20 50H120V0H20C10.5719 0 5.85786 0 2.92893 2.92893Z" fill="white"/>
<path opacity="0.6" fill-rule="evenodd" clip-rule="evenodd" d="M120 50H340C349.428 50 354.142 50 357.071 47.0711C360 44.1421 360 39.4281 360 30V20C360 10.5719 360 5.85786 357.071 2.92893C354.142 0 349.428 0 340 0H120V50Z" fill="white"/>
<g opacity="0.8">
<path d="M20.768 27.408H15.168L14.064 30H11.92L16.96 18.8H19.008L24.064 30H21.888L20.768 27.408ZM20.08 25.776L17.968 20.88L15.872 25.776H20.08ZM30.1444 21.36C31.2217 21.36 32.0857 21.6747 32.7364 22.304C33.387 22.9333 33.7124 23.8667 33.7124 25.104V30H31.7124V25.36C31.7124 24.6133 31.5364 24.0533 31.1844 23.68C30.8324 23.296 30.331 23.104 29.6804 23.104C28.9444 23.104 28.363 23.328 27.9364 23.776C27.5097 24.2133 27.2964 24.848 27.2964 25.68V30H25.2964V21.456H27.2004V22.56C27.531 22.1653 27.947 21.8667 28.4484 21.664C28.9497 21.4613 29.515 21.36 30.1444 21.36ZM30.6564 20.288C30.3897 20.288 30.155 20.2347 29.9524 20.128C29.7604 20.0213 29.5204 19.8613 29.2324 19.648C29.0617 19.5093 28.9177 19.408 28.8004 19.344C28.6937 19.2693 28.587 19.232 28.4804 19.232C28.2564 19.232 28.0697 19.3173 27.9204 19.488C27.7817 19.6587 27.707 19.8933 27.6964 20.192H26.6244C26.635 19.5413 26.795 19.024 27.1044 18.64C27.4244 18.2453 27.8404 18.048 28.3524 18.048C28.619 18.048 28.8484 18.1013 29.0404 18.208C29.243 18.3147 29.4884 18.4747 29.7764 18.688C29.947 18.8267 30.0857 18.9333 30.1924 19.008C30.3097 19.072 30.4217 19.104 30.5284 19.104C30.7524 19.104 30.9337 19.024 31.0724 18.864C31.2217 18.704 31.3017 18.48 31.3124 18.192H32.3844C32.363 18.8213 32.1977 19.328 31.8884 19.712C31.579 20.096 31.1684 20.288 30.6564 20.288ZM40.1676 30.112C39.3036 30.112 38.525 29.9253 37.8316 29.552C37.1383 29.1787 36.5943 28.6613 36.1996 28C35.8156 27.328 35.6236 26.5707 35.6236 25.728C35.6236 24.8853 35.8156 24.1333 36.1996 23.472C36.5943 22.8107 37.1383 22.2933 37.8316 21.92C38.525 21.5467 39.3036 21.36 40.1676 21.36C41.0423 21.36 41.8263 21.5467 42.5196 21.92C43.213 22.2933 43.7516 22.8107 44.1356 23.472C44.5303 24.1333 44.7276 24.8853 44.7276 25.728C44.7276 26.5707 44.5303 27.328 44.1356 28C43.7516 28.6613 43.213 29.1787 42.5196 29.552C41.8263 29.9253 41.0423 30.112 40.1676 30.112ZM40.1676 28.4C40.9036 28.4 41.5116 28.1547 41.9916 27.664C42.4716 27.1733 42.7116 26.528 42.7116 25.728C42.7116 24.928 42.4716 24.2827 41.9916 23.792C41.5116 23.3013 40.9036 23.056 40.1676 23.056C39.4316 23.056 38.8236 23.3013 38.3436 23.792C37.8743 24.2827 37.6396 24.928 37.6396 25.728C37.6396 26.528 37.8743 27.1733 38.3436 27.664C38.8236 28.1547 39.4316 28.4 40.1676 28.4ZM47.2801 24.016C46.9175 24.016 46.6081 23.8933 46.3521 23.648C46.0961 23.392 45.9681 23.072 45.9681 22.688C45.9681 22.2933 46.0908 21.9733 46.3361 21.728C46.5921 21.4827 46.9068 21.36 47.2801 21.36C47.6535 21.36 47.9628 21.4827 48.2081 21.728C48.4641 21.9733 48.5921 22.2933 48.5921 22.688C48.5921 23.072 48.4641 23.392 48.2081 23.648C47.9521 23.8933 47.6428 24.016 47.2801 24.016ZM47.2801 30.112C46.9175 30.112 46.6081 29.9893 46.3521 29.744C46.0961 29.488 45.9681 29.168 45.9681 28.784C45.9681 28.3893 46.0908 28.0693 46.3361 27.824C46.5921 27.5787 46.9068 27.456 47.2801 27.456C47.6535 27.456 47.9628 27.5787 48.2081 27.824C48.4641 28.0693 48.5921 28.3893 48.5921 28.784C48.5921 29.168 48.4641 29.488 48.2081 29.744C47.9521 29.9893 47.6428 30.112 47.2801 30.112Z" fill="white"/>
</g>
</svg>
