<svg width="360" height="50" viewBox="0 0 360 50" fill="none" xmlns="http://www.w3.org/2000/svg">
<path opacity="0.4" fill-rule="evenodd" clip-rule="evenodd" d="M2.92893 2.92893C0 5.85786 0 10.5719 0 20V30C0 39.4281 0 44.1421 2.92893 47.0711C5.85786 50 10.5719 50 20 50H120V0H20C10.5719 0 5.85786 0 2.92893 2.92893Z" fill="white"/>
<path opacity="0.6" fill-rule="evenodd" clip-rule="evenodd" d="M120 50H340C349.428 50 354.142 50 357.071 47.0711C360 44.1421 360 39.4281 360 30V20C360 10.5719 360 5.85786 357.071 2.92893C354.142 0 349.428 0 340 0H120V50Z" fill="white"/>
<path opacity="0.8" d="M18.688 30.16C17.5573 30.16 16.5333 29.9147 15.616 29.424C14.7093 28.9227 13.9947 28.2347 13.472 27.36C12.96 26.4853 12.704 25.4987 12.704 24.4C12.704 23.3013 12.9653 22.3147 13.488 21.44C14.0107 20.5653 14.7253 19.8827 15.632 19.392C16.5493 18.8907 17.5733 18.64 18.704 18.64C19.6213 18.64 20.4587 18.8 21.216 19.12C21.9733 19.44 22.6133 19.904 23.136 20.512L21.792 21.776C20.9813 20.9013 19.984 20.464 18.8 20.464C18.032 20.464 17.344 20.6347 16.736 20.976C16.128 21.3067 15.6533 21.7707 15.312 22.368C14.9707 22.9653 14.8 23.6427 14.8 24.4C14.8 25.1573 14.9707 25.8347 15.312 26.432C15.6533 27.0293 16.128 27.4987 16.736 27.84C17.344 28.1707 18.032 28.336 18.8 28.336C19.984 28.336 20.9813 27.8933 21.792 27.008L23.136 28.288C22.6133 28.896 21.968 29.36 21.2 29.68C20.4427 30 19.6053 30.16 18.688 30.16ZM28.4645 30.112C27.6005 30.112 26.8218 29.9253 26.1285 29.552C25.4352 29.1787 24.8912 28.6613 24.4965 28C24.1125 27.328 23.9205 26.5707 23.9205 25.728C23.9205 24.8853 24.1125 24.1333 24.4965 23.472C24.8912 22.8107 25.4352 22.2933 26.1285 21.92C26.8218 21.5467 27.6005 21.36 28.4645 21.36C29.3392 21.36 30.1232 21.5467 30.8165 21.92C31.5098 22.2933 32.0485 22.8107 32.4325 23.472C32.8272 24.1333 33.0245 24.8853 33.0245 25.728C33.0245 26.5707 32.8272 27.328 32.4325 28C32.0485 28.6613 31.5098 29.1787 30.8165 29.552C30.1232 29.9253 29.3392 30.112 28.4645 30.112ZM28.4645 28.4C29.2005 28.4 29.8085 28.1547 30.2885 27.664C30.7685 27.1733 31.0085 26.528 31.0085 25.728C31.0085 24.928 30.7685 24.2827 30.2885 23.792C29.8085 23.3013 29.2005 23.056 28.4645 23.056C27.7285 23.056 27.1205 23.3013 26.6405 23.792C26.1712 24.2827 25.9365 24.928 25.9365 25.728C25.9365 26.528 26.1712 27.1733 26.6405 27.664C27.1205 28.1547 27.7285 28.4 28.4645 28.4ZM39.785 21.36C40.8623 21.36 41.7263 21.6747 42.377 22.304C43.0277 22.9333 43.353 23.8667 43.353 25.104V30H41.353V25.36C41.353 24.6133 41.177 24.0533 40.825 23.68C40.473 23.296 39.9717 23.104 39.321 23.104C38.585 23.104 38.0037 23.328 37.577 23.776C37.1503 24.2133 36.937 24.848 36.937 25.68V30H34.937V21.456H36.841V22.56C37.1717 22.1653 37.5877 21.8667 38.089 21.664C38.5903 21.4613 39.1557 21.36 39.785 21.36ZM48.5301 30.112C47.8368 30.112 47.1595 30.0213 46.4981 29.84C45.8368 29.6587 45.3088 29.4293 44.9141 29.152L45.6821 27.632C46.0661 27.888 46.5248 28.096 47.0581 28.256C47.6021 28.4053 48.1355 28.48 48.6581 28.48C49.8528 28.48 50.4501 28.1653 50.4501 27.536C50.4501 27.2373 50.2955 27.0293 49.9861 26.912C49.6875 26.7947 49.2021 26.6827 48.5301 26.576C47.8261 26.4693 47.2501 26.3467 46.8021 26.208C46.3648 26.0693 45.9808 25.8293 45.6501 25.488C45.3301 25.136 45.1701 24.6507 45.1701 24.032C45.1701 23.2213 45.5061 22.576 46.1781 22.096C46.8608 21.6053 47.7781 21.36 48.9301 21.36C49.5168 21.36 50.1035 21.4293 50.6901 21.568C51.2768 21.696 51.7568 21.872 52.1301 22.096L51.3621 23.616C50.6368 23.1893 49.8208 22.976 48.9141 22.976C48.3275 22.976 47.8795 23.0667 47.5701 23.248C47.2715 23.4187 47.1221 23.648 47.1221 23.936C47.1221 24.256 47.2821 24.4853 47.6021 24.624C47.9328 24.752 48.4395 24.8747 49.1221 24.992C49.8048 25.0987 50.3648 25.2213 50.8021 25.36C51.2395 25.4987 51.6128 25.7333 51.9221 26.064C52.2421 26.3947 52.4021 26.864 52.4021 27.472C52.4021 28.272 52.0555 28.912 51.3621 29.392C50.6688 29.872 49.7248 30.112 48.5301 30.112ZM57.9645 30.112C57.1005 30.112 56.3218 29.9253 55.6285 29.552C54.9352 29.1787 54.3912 28.6613 53.9965 28C53.6125 27.328 53.4205 26.5707 53.4205 25.728C53.4205 24.8853 53.6125 24.1333 53.9965 23.472C54.3912 22.8107 54.9352 22.2933 55.6285 21.92C56.3218 21.5467 57.1005 21.36 57.9645 21.36C58.8392 21.36 59.6232 21.5467 60.3165 21.92C61.0098 22.2933 61.5485 22.8107 61.9325 23.472C62.3272 24.1333 62.5245 24.8853 62.5245 25.728C62.5245 26.5707 62.3272 27.328 61.9325 28C61.5485 28.6613 61.0098 29.1787 60.3165 29.552C59.6232 29.9253 58.8392 30.112 57.9645 30.112ZM57.9645 28.4C58.7005 28.4 59.3085 28.1547 59.7885 27.664C60.2685 27.1733 60.5085 26.528 60.5085 25.728C60.5085 24.928 60.2685 24.2827 59.7885 23.792C59.3085 23.3013 58.7005 23.056 57.9645 23.056C57.2285 23.056 56.6205 23.3013 56.1405 23.792C55.6712 24.2827 55.4365 24.928 55.4365 25.728C55.4365 26.528 55.6712 27.1733 56.1405 27.664C56.6205 28.1547 57.2285 28.4 57.9645 28.4ZM64.437 18.128H66.437V30H64.437V18.128ZM72.326 21.36C73.5847 21.36 74.5447 21.664 75.206 22.272C75.878 22.8693 76.214 23.776 76.214 24.992V30H74.326V28.96C74.0807 29.3333 73.7287 29.6213 73.27 29.824C72.822 30.016 72.278 30.112 71.638 30.112C70.998 30.112 70.438 30.0053 69.958 29.792C69.478 29.568 69.1047 29.264 68.838 28.88C68.582 28.4853 68.454 28.0427 68.454 27.552C68.454 26.784 68.7367 26.1707 69.302 25.712C69.878 25.2427 70.7793 25.008 72.006 25.008H74.214V24.88C74.214 24.2827 74.0327 23.824 73.67 23.504C73.318 23.184 72.79 23.024 72.086 23.024C71.606 23.024 71.1313 23.0987 70.662 23.248C70.2033 23.3973 69.814 23.6053 69.494 23.872L68.71 22.416C69.158 22.0747 69.6967 21.8133 70.326 21.632C70.9553 21.4507 71.622 21.36 72.326 21.36ZM72.054 28.656C72.5553 28.656 72.998 28.544 73.382 28.32C73.7767 28.0853 74.054 27.7547 74.214 27.328V26.336H72.15C70.998 26.336 70.422 26.7147 70.422 27.472C70.422 27.8347 70.566 28.1227 70.854 28.336C71.142 28.5493 71.542 28.656 72.054 28.656ZM79.4208 24.016C79.0581 24.016 78.7488 23.8933 78.4928 23.648C78.2368 23.392 78.1088 23.072 78.1088 22.688C78.1088 22.2933 78.2314 21.9733 78.4768 21.728C78.7328 21.4827 79.0474 21.36 79.4208 21.36C79.7941 21.36 80.1034 21.4827 80.3488 21.728C80.6048 21.9733 80.7328 22.2933 80.7328 22.688C80.7328 23.072 80.6048 23.392 80.3488 23.648C80.0928 23.8933 79.7834 24.016 79.4208 24.016ZM79.4208 30.112C79.0581 30.112 78.7488 29.9893 78.4928 29.744C78.2368 29.488 78.1088 29.168 78.1088 28.784C78.1088 28.3893 78.2314 28.0693 78.4768 27.824C78.7328 27.5787 79.0474 27.456 79.4208 27.456C79.7941 27.456 80.1034 27.5787 80.3488 27.824C80.6048 28.0693 80.7328 28.3893 80.7328 28.784C80.7328 29.168 80.6048 29.488 80.3488 29.744C80.0928 29.9893 79.7834 30.112 79.4208 30.112Z" fill="white"/>
</svg>
