<svg width="360" height="50" viewBox="0 0 360 50" fill="none" xmlns="http://www.w3.org/2000/svg">
<path opacity="0.4" fill-rule="evenodd" clip-rule="evenodd" d="M2.92893 2.92893C0 5.85786 0 10.5719 0 20V30C0 39.4281 0 44.1421 2.92893 47.0711C5.85786 50 10.5719 50 20 50H120V0H20C10.5719 0 5.85786 0 2.92893 2.92893Z" fill="white"/>
<path opacity="0.6" fill-rule="evenodd" clip-rule="evenodd" d="M120 50H340C349.428 50 354.142 50 357.071 47.0711C360 44.1421 360 39.4281 360 30V20C360 10.5719 360 5.85786 357.071 2.92893C354.142 0 349.428 0 340 0H120V50Z" fill="white"/>
<path opacity="0.8" d="M15.776 20.56H12.064V18.8H21.568V20.56H17.856V30H15.776V20.56ZM22.7339 21.456H24.7339V30H22.7339V21.456ZM24.5579 18.096H26.9099L24.1259 20.288H22.3979L24.5579 18.096ZM32.4949 29.536C32.2602 29.728 31.9722 29.872 31.6309 29.968C31.3002 30.064 30.9482 30.112 30.5749 30.112C29.6362 30.112 28.9109 29.8667 28.3989 29.376C27.8869 28.8853 27.6309 28.1707 27.6309 27.232V23.12H26.2229V21.52H27.6309V19.568H29.6309V21.52H31.9189V23.12H29.6309V27.184C29.6309 27.6 29.7322 27.92 29.9349 28.144C30.1375 28.3573 30.4309 28.464 30.8149 28.464C31.2629 28.464 31.6362 28.3467 31.9349 28.112L32.4949 29.536ZM42.4121 21.456V30H40.5081V28.912C40.1881 29.296 39.7881 29.5947 39.3081 29.808C38.8281 30.0107 38.3108 30.112 37.7561 30.112C36.6148 30.112 35.7135 29.7973 35.0521 29.168C34.4015 28.528 34.0761 27.584 34.0761 26.336V21.456H36.0761V26.064C36.0761 26.832 36.2468 27.408 36.5881 27.792C36.9401 28.1653 37.4361 28.352 38.0761 28.352C38.7908 28.352 39.3561 28.1333 39.7721 27.696C40.1988 27.248 40.4121 26.608 40.4121 25.776V21.456H42.4121ZM45.0308 18.128H47.0308V30H45.0308V18.128ZM53.4958 30.112C52.6318 30.112 51.8531 29.9253 51.1598 29.552C50.4664 29.1787 49.9224 28.6613 49.5278 28C49.1438 27.328 48.9518 26.5707 48.9518 25.728C48.9518 24.8853 49.1438 24.1333 49.5278 23.472C49.9224 22.8107 50.4664 22.2933 51.1598 21.92C51.8531 21.5467 52.6318 21.36 53.4958 21.36C54.3704 21.36 55.1544 21.5467 55.8478 21.92C56.5411 22.2933 57.0798 22.8107 57.4638 23.472C57.8584 24.1333 58.0558 24.8853 58.0558 25.728C58.0558 26.5707 57.8584 27.328 57.4638 28C57.0798 28.6613 56.5411 29.1787 55.8478 29.552C55.1544 29.9253 54.3704 30.112 53.4958 30.112ZM53.4958 28.4C54.2318 28.4 54.8398 28.1547 55.3198 27.664C55.7998 27.1733 56.0398 26.528 56.0398 25.728C56.0398 24.928 55.7998 24.2827 55.3198 23.792C54.8398 23.3013 54.2318 23.056 53.4958 23.056C52.7598 23.056 52.1518 23.3013 51.6718 23.792C51.2024 24.2827 50.9678 24.928 50.9678 25.728C50.9678 26.528 51.2024 27.1733 51.6718 27.664C52.1518 28.1547 52.7598 28.4 53.4958 28.4ZM60.6083 24.016C60.2456 24.016 59.9363 23.8933 59.6803 23.648C59.4243 23.392 59.2963 23.072 59.2963 22.688C59.2963 22.2933 59.4189 21.9733 59.6643 21.728C59.9203 21.4827 60.2349 21.36 60.6083 21.36C60.9816 21.36 61.2909 21.4827 61.5363 21.728C61.7923 21.9733 61.9203 22.2933 61.9203 22.688C61.9203 23.072 61.7923 23.392 61.5363 23.648C61.2803 23.8933 60.9709 24.016 60.6083 24.016ZM60.6083 30.112C60.2456 30.112 59.9363 29.9893 59.6803 29.744C59.4243 29.488 59.2963 29.168 59.2963 28.784C59.2963 28.3893 59.4189 28.0693 59.6643 27.824C59.9203 27.5787 60.2349 27.456 60.6083 27.456C60.9816 27.456 61.2909 27.5787 61.5363 27.824C61.7923 28.0693 61.9203 28.3893 61.9203 28.784C61.9203 29.168 61.7923 29.488 61.5363 29.744C61.2803 29.9893 60.9709 30.112 60.6083 30.112Z" fill="white"/>
</svg>
